<svg width="25" height="25" fill="none" xmlns="http://www.w3.org/2000/svg"><path d="M23.89 16.39c-.545-.65-1.159-1.233-1.753-1.796-.209-.197-.425-.402-.633-.605-.28-.273-.417-.467-.431-.61-.014-.14.082-.349.303-.657.33-.464.683-.929 1.024-1.378.303-.4.616-.813.916-1.228l.067-.093c.586-.811 1.192-1.65 1.516-2.67.093-.294.189-.727-.043-1.107-.232-.381-.663-.494-.966-.546a2.437 2.437 0 0 0-.42-.027l-3.8-.003c-.656-.011-1.112.3-1.36.925-.199.5-.433 1.078-.705 1.627-.52 1.06-1.182 2.28-2.14 3.297l-.042.046c-.066.07-.172.183-.227.21-.104-.066-.224-.439-.218-.634v-.015l-.003-4.39a.514.514 0 0 0-.005-.066c-.085-.627-.251-1.255-1.242-1.45a.496.496 0 0 0-.097-.01H9.68c-.743 0-1.137.34-1.452.71-.091.108-.334.393-.21.743.125.353.497.424.62.447.43.082.653.325.722.79.136.905.153 1.872.053 3.043a2.48 2.48 0 0 1-.164.752.577.577 0 0 1-.058.11.579.579 0 0 1-.108-.061c-.302-.207-.53-.53-.75-.84-.882-1.244-1.623-2.618-2.266-4.2-.266-.65-.764-1.012-1.403-1.021a94.662 94.662 0 0 0-3.44.002c-.518.009-.88.171-1.08.484-.198.313-.19.712.022 1.186 1.524 3.388 2.907 5.852 4.485 7.99 1.111 1.506 2.23 2.55 3.52 3.289 1.356.776 2.885 1.156 4.659 1.156.201 0 .407-.005.615-.015 1.094-.05 1.54-.485 1.588-1.551.027-.564.09-1.02.307-1.416.061-.111.13-.186.184-.2.057-.014.16.021.273.095.207.135.386.317.533.478.148.163.299.33.444.494.31.346.63.705.966 1.046.759.774 1.634 1.129 2.601 1.055l3.477.001a1.17 1.17 0 0 0 .985-.61c.245-.434.241-.984-.01-1.472-.263-.507-.603-.943-.903-1.304zm.045 2.287c-.048.085-.107.1-.138.104l-3.476-.002-.041.002c-.685.057-1.267-.184-1.83-.757-.32-.326-.632-.675-.934-1.013-.147-.165-.3-.335-.452-.502a3.784 3.784 0 0 0-.726-.641c-.45-.293-.824-.284-1.058-.225-.232.058-.561.225-.814.686-.327.596-.4 1.24-.429 1.848-.017.372-.08.47-.106.495-.034.033-.15.09-.533.108-1.845.087-3.393-.244-4.733-1.01-1.166-.668-2.188-1.626-3.214-3.016-1.534-2.08-2.884-4.487-4.377-7.807a.844.844 0 0 1-.076-.235.85.85 0 0 1 .243-.032c1.087-.02 2.2-.021 3.407-.001.165.002.353.052.495.4.673 1.654 1.45 3.093 2.376 4.4.245.347.551.78 1.001 1.087.412.282.746.268.954.207.208-.06.497-.23.691-.69.126-.297.201-.631.239-1.053.107-1.253.088-2.294-.06-3.277-.104-.703-.468-1.212-1.04-1.471a.779.779 0 0 1 .375-.076h3.9c.22.05.263.108.278.127.064.084.1.283.122.438l.003 4.35c-.009.417.194 1.341.884 1.595a.385.385 0 0 0 .017.006c.628.205 1.044-.238 1.267-.476l.04-.043c1.049-1.114 1.756-2.415 2.308-3.54.288-.581.532-1.182.738-1.7.103-.26.197-.302.42-.297a.28.28 0 0 0 .01 0l3.804.003c.088 0 .18.001.252.013.181.031.256.069.28.084a.793.793 0 0 1-.052.285c-.276.87-.81 1.607-1.374 2.388l-.067.094c-.294.406-.603.814-.903 1.209a58.56 58.56 0 0 0-1.04 1.4c-.724 1.01-.66 1.68.243 2.56.213.208.432.415.643.616.6.568 1.166 1.104 1.672 1.71.265.319.565.702.783 1.124.114.221.086.421.028.525z" fill="#fff"/></svg>