<svg id="svg4" width="25" height="25" fill="none" version="1.1" xmlns="http://www.w3.org/2000/svg">
 <path id="path2" d="m13.313 2.687c-1.281 0-2.53 0.25-3.71 0.739a9.655 9.655 0 0 0-3.147 2.103 9.634 9.634 0 0 0-2.84 6.858c0 1.545 0.373 3.08 1.079 4.447l-1.63 4.659a0.89 0.89 0 0 0 0.211 0.93 0.895 0.895 0 0 0 0.933 0.214l4.657-1.63a9.733 9.733 0 0 0 4.449 1.079c2.59 0 5.026-1.01 6.858-2.842a9.633 9.633 0 0 0 2.84-6.857 9.633 9.633 0 0 0-2.84-6.858 9.634 9.634 0 0 0-6.858-2.842zm0 1.174h2e-3c2.277 0 4.417 0.886 6.027 2.497a8.471 8.471 0 0 1 2.498 6.029 8.47 8.47 0 0 1-2.498 6.029 8.466 8.466 0 0 1-6.027 2.496 8.55 8.55 0 0 1-4.003-0.996 0.902 0.902 0 0 0-0.72-0.055l-4.232 1.479 1.481-4.23a0.906 0.906 0 0 0-0.056-0.723 8.546 8.546 0 0 1-0.997-4.001c0-2.278 0.888-4.42 2.498-6.03a8.469 8.469 0 0 1 6.027-2.496zm-2.989 3.27c-0.293 0-0.586 0.112-0.81 0.335l-1.051 1.054c-0.603 0.602-0.633 1.637-0.085 2.916 0.476 1.11 1.346 2.33 2.451 3.435 1.106 1.105 2.325 1.977 3.435 2.453 0.608 0.26 1.161 0.389 1.639 0.389 0.527 0 0.963-0.158 1.279-0.474l1.052-1.052v-1e-3a1.138 1.138 0 0 0 0-1.617l-1.315-1.317a1.146 1.146 0 0 0-1.619 0l-0.487 0.488a7.1 7.1 0 0 1-2.853-2.851l0.488-0.49a1.145 1.145 0 0 0 0-1.618l-1.315-1.315a1.139 1.139 0 0 0-0.809-0.334zm0 1.186 1.276 1.273-0.612 0.61a0.897 0.897 0 0 0-0.165 1.044 8.272 8.272 0 0 0 3.634 3.633 0.895 0.895 0 0 0 1.043-0.165l0.611-0.61 1.275 1.274-1.033 1.032c-0.172 0.172-0.7 0.232-1.625-0.165-0.976-0.418-2.065-1.2-3.068-2.202-1.002-1.002-1.785-2.092-2.203-3.068-0.397-0.924-0.337-1.454-0.165-1.626z" style="fill:#fff;stroke-width:.79293"/>
</svg>
