<?xml version="1.0" encoding="UTF-8"?>
<svg version="1.1" viewBox="0 0 45 45" xmlns="http://www.w3.org/2000/svg">
 <style type="text/css">.st0{fill-rule:evenodd;clip-rule:evenodd;fill:#151515;}</style>
 <g transform="translate(0 .05)">
  <path class="st0" d="m13 41.2c-2.4 0-2.4 3.7 0 3.7 1.5 0 2.4-1.8 1.5-3 1-1.1 2.1-2.1 3.1-3.2v-4.7h4.4v7.3c-2 0.6-1.6 3.6 0.5 3.6 2.2 0 2.6-3.1 0.5-3.7v-7.3h4.3v4.8c1.1 1.1 2.1 2.2 3.2 3.3-0.8 1.2 0 2.9 1.5 2.9 3 0 2-4.8-0.8-3.5l-2.9-3v-4.4h4.3l1.4-1.4v-4.3h4.4l3 2.9c-1.3 2.7 3.5 3.8 3.5 0.8 0-1.5-1.7-2.4-2.9-1.5l-3.3-3.2h-4.7v-4.3h7.3c0.6 2.1 3.7 1.7 3.7-0.5s-3.1-2.6-3.7-0.5h-7.3v-4.4h4.8c1.1-1 2.1-2.1 3.2-3.1 1.2 0.9 3 0 3-1.5 0-3-4.7-2-3.6 0.7l-3 2.9h-4.4v-4.2l-1.4-1.4h-4.3v-4.4l2.9-3c2.7 1.2 3.8-3.6 0.8-3.6-1.5 0-2.4 1.7-1.5 2.9l-3.2 3.3v4.8h-4.3v-7.3c2-0.6 1.6-3.7-0.5-3.7s-2.6 3.1-0.5 3.7v7.3h-4.4v-4.8c-1-1.1-2.1-2.1-3.1-3.2 0.9-1.2 0-3-1.5-3-3 0-2 4.7 0.7 3.6l2.9 3v4.4h-4.2l-1.4 1.4v4.2h-4.4l-3-2.9c1.1-2.7-3.6-3.7-3.6-0.7 0 1.5 1.8 2.4 3 1.5 1.1 1 2.1 2.1 3.2 3.1h4.8v4.4h-7.3c-0.7-2.1-3.7-1.7-3.7 0.5s3.1 2.6 3.7 0.5h7.3v4.3h-4.8c-1.1 1.1-2.2 2.1-3.3 3.2-1.2-0.9-2.9 0-2.9 1.5 0 3 4.8 2 3.5-0.8l3-2.9h4.4v4.3l1.4 1.4h4.2v4.4l-2.9 3c-0.1-0.1-0.4-0.2-0.6-0.2zm4.6-8.2h-4.8l-0.8-0.8v-19.4l0.8-0.8h19.4l0.8 0.8v19.4l-0.8 0.8h-14.6zm26.4-20c0 1.1-1.7 1.1-1.7 0-0.1-1.2 1.7-1.2 1.7 0zm0 9.5c0 1.1-1.7 1.1-1.7 0s1.7-1.2 1.7 0zm0 9.5c0 1.1-1.7 1.1-1.7 0-0.1-1.2 1.7-1.2 1.7 0zm-41.3 0c0 1.1-1.7 1.1-1.7 0 0-1.2 1.7-1.2 1.7 0zm0-9.5c0 1.1-1.7 1.1-1.7 0s1.7-1.2 1.7 0zm0-9.5c0 1.1-1.7 1.1-1.7 0 0-1.2 1.7-1.2 1.7 0zm10.3-12c1.1 0 1.1 1.7 0 1.7s-1.2-1.7 0-1.7zm9.5 0c1.1 0 1.1 1.7 0 1.7s-1.2-1.7 0-1.7zm9.5 0c1.1 0 1.1 1.7 0 1.7-1.2 0-1.2-1.7 0-1.7zm0 41.2c1.1 0 1.1 1.7 0 1.7-1.2 0.1-1.2-1.7 0-1.7zm-9.5 0c1.1 0 1.1 1.7 0 1.7s-1.2-1.7 0-1.7zm-9.5 0c1.1 0 1.1 1.7 0 1.7-1.2 0.1-1.2-1.7 0-1.7z"/>
 </g>
</svg>
