<?xml version="1.0" encoding="UTF-8"?>
<svg version="1.1" viewBox="0 0 45 45" xmlns="http://www.w3.org/2000/svg">
 <style type="text/css">.st0{fill:#151515;}</style>
 <g transform="translate(1.8322 .42226)">
  <path class="st0" d="m33.2 7.2c-8-7.1-20.7-1-20.1 9.7 0.6 10.6 13.8 15.4 21 7.4 4.5-5 4-12.6-0.9-17.1zm8.1 8c-0.9-14.9-19.9-20.8-29-8.9-5 6.5-4.4 15.8 1.5 21.5l-2.6 3c-0.5-0.5-1.3-1.4-1.9-0.7l-9.3 10.5 0.2 0.8c0.8 0.7 2.8 2.8 3.4 2.8l0.6-0.3 9.3-10.5c0.2-0.7-0.5-1.1-1.1-1.6l2.6-3c10.8 8.7 27.2 0.5 26.3-13.6zm-37.8 27.2-1.7-1.6 8.1-9.1 1.7 1.5c0.1 0-8.1 9.2-8.1 9.2zm32.6-16.5c-8.5 10.1-25.1 4.5-25.8-8.7-0.6-11.9 12.6-19.9 22.9-13.3 7.5 4.9 8.9 15.4 2.9 22zm-17.5-15.5c-0.7 0.7 0.5 1.8 1.1 1 2.7-3 7.4-3.1 10.2-0.6 0.8 0.7 1.8-0.5 1-1.1-3.8-3.2-9.1-2.8-12.3 0.7zm14.4 12.8c-6.6 7.3-18.8 2.4-18.4-7.5 0.5-11 15.6-14 20.1-3.8 1.7 3.8 1 8.3-1.7 11.3z"/>
 </g>
</svg>
