<?xml version="1.0" encoding="UTF-8"?>
<svg xmlns="http://www.w3.org/2000/svg" width="100" height="100" viewBox="0 0 100 100" fill="none"><title> - static.tildacdn.com/ </title> <path opacity="0.7" d="M89.95 28.7969C88.4066 27.4621 83.7568 22.2414 82.2083 20.8984C74.8981 14.5587 73.727 9.16867 65.357 4.11753C56.4571 -1.2544 44.9182 -1.36858 35.8048 3.76683C25.6677 9.47587 21.236 16.9542 13.0281 25.0257C0.31105 37.5312 -3.06908 56.5972 2.76985 68.8798C7.00372 77.7886 17.1411 84.2529 25.3979 87.6186C35.6559 91.8025 38.9911 98.8875 50.1005 99.9016C59.5791 100.763 77.1172 95.9324 81.5748 86.7436C84.1033 81.5239 88.7127 78.1474 92.5248 74.1022C102.556 63.4535 102.219 43.1701 93.1447 32.0048C92.1729 30.8364 91.1037 29.7628 89.95 28.7969Z" fill="#FFE7C4"/> <path d="M81.8986 51.0566C81.7806 50.8163 81.5723 50.6325 81.319 50.5452C81.0657 50.4579 80.7882 50.4743 80.547 50.5908L73.377 54.0674L68.4912 56.187C67.7343 55.9913 65.7881 55.512 64.0783 54.9719L63.2336 54.6547C63.1113 54.6153 62.9837 54.5948 62.8552 54.5939C62.2537 54.4049 61.7334 54.2159 61.382 54.0674C59.2851 53.1041 57.3019 51.9109 55.4689 50.5098C54.1174 49.3217 50.529 44.9272 50.4885 44.8866C50.3424 44.7035 50.1369 44.5769 49.9075 44.5289C49.678 44.4808 49.4389 44.5142 49.2315 44.6234C48.2516 45.1364 45.062 46.4865 43.3793 45.9735C42.2698 45.6074 41.2466 45.0194 40.3721 44.2454C40.0085 43.5895 39.8574 42.8371 39.9396 42.0919C40.3045 41.9097 41.6831 42.1392 42.3589 42.2539C43.3642 42.5327 44.4189 42.5858 45.4472 42.4092C47.0961 41.8759 50.4141 39.0339 51.2183 38.3589C52.009 38.0686 55.9487 36.7523 58.6518 37.8391C59.9554 38.3539 61.3454 38.6151 62.7471 38.6087C64.414 38.6146 66.064 38.2744 67.5924 37.6096L77.5601 32.2834C77.6777 32.2209 77.7818 32.1359 77.8665 32.0332C77.9512 31.9305 78.0148 31.8122 78.0537 31.6849C78.0926 31.5577 78.106 31.424 78.0932 31.2916C78.0804 31.1591 78.0416 31.0305 77.9791 30.9131C77.9165 30.7956 77.8314 30.6916 77.7286 30.607C77.6258 30.5224 77.5073 30.4589 77.3799 30.42C77.2525 30.3811 77.1187 30.3677 76.9862 30.3805C76.8536 30.3933 76.7248 30.432 76.6072 30.4945L66.6936 35.7802C64.3725 36.7401 61.7754 36.7955 59.4155 35.9355C56.1785 34.6461 51.9819 35.9355 50.7047 36.3742C49.2856 35.8409 45.2985 34.4233 43.5482 34.6866C41.9061 34.9431 37.1081 35.1659 35.1618 34.8081C34.3442 34.5786 28.1067 31.2101 22.6667 28.1589C22.5506 28.0848 22.4205 28.0353 22.2845 28.0131C22.1485 27.991 22.0094 27.9969 21.8757 28.0303C21.7421 28.0636 21.6166 28.1239 21.507 28.2074C21.3975 28.2908 21.3061 28.3957 21.2384 28.5157C21.1708 28.6356 21.1284 28.768 21.1137 28.9049C21.0991 29.0418 21.1125 29.1802 21.1532 29.3117C21.1939 29.4432 21.261 29.565 21.3505 29.6697C21.4399 29.7745 21.5498 29.8599 21.6733 29.9207C25.2347 31.9459 33.6413 36.5835 34.7564 36.7928C37.1351 37.2316 42.244 36.9345 43.8591 36.6915C44.6498 36.57 46.8122 37.1641 48.7044 37.8121C47.292 38.9664 45.6026 40.2288 44.8322 40.4718C44.1156 40.5271 43.3947 40.4679 42.6968 40.2963C41.0884 40.0263 39.4328 39.7427 38.4596 40.7283C37.3716 41.8422 38.0204 44.6234 38.811 45.5752C39.9409 46.6661 41.3077 47.4816 42.8049 47.9581C44.9876 48.5927 48.0084 47.4383 49.4207 46.797C50.8954 48.639 52.4748 50.3948 54.1512 52.0557C56.1365 53.578 58.2879 54.8711 60.5643 55.9103C61.4975 56.283 62.4494 56.6075 63.4161 56.8823L68.1465 58.651C68.4107 58.7989 68.6105 59.0394 68.7074 59.326C68.919 59.9804 68.8805 60.6898 68.5993 61.3174C68.4385 61.6514 68.1761 61.9259 67.8495 62.1018C67.523 62.2776 67.1491 62.3457 66.7814 62.2963C66.6365 62.2148 66.4745 62.1686 66.3084 62.1612L59.8615 58.8197C59.7421 58.7608 59.6123 58.7259 59.4794 58.7171C59.3466 58.7082 59.2133 58.7256 59.0872 58.7682C58.961 58.8109 58.8445 58.8779 58.7443 58.9655C58.6441 59.0531 58.5622 59.1595 58.5032 59.2788C58.4442 59.398 58.4092 59.5277 58.4004 59.6604C58.3915 59.7931 58.409 59.9263 58.4516 60.0523C58.4943 60.1783 58.5614 60.2946 58.6491 60.3947C58.7368 60.4948 58.8433 60.5767 58.9627 60.6356L65.4569 64.0109H65.5177C65.5559 64.2384 65.5301 64.4721 65.4434 64.6859C65.3858 64.8695 65.3406 65.0566 65.3082 65.2462C65.1042 65.6323 64.7624 65.9277 64.3507 66.0739C63.9389 66.2202 63.4872 66.2067 63.0849 66.036L57.6787 63.6734H57.6044H57.5098H57.4084H57.3138H57.1178H57.0232H56.9286L56.8408 63.7139L56.7529 63.7611L56.6786 63.8151L56.5975 63.8759L56.5299 63.9434L56.4623 64.0244L56.415 64.1054C56.4009 64.129 56.3851 64.1515 56.3677 64.1729V64.1729V64.2404C56.3648 64.2763 56.3648 64.3125 56.3677 64.3484C56.3677 64.3484 56.3677 64.4092 56.3677 64.4429C56.3644 64.4766 56.3644 64.5105 56.3677 64.5442C56.3677 64.5442 56.3677 64.6049 56.3677 64.6387C56.3641 64.6701 56.3641 64.7018 56.3677 64.7332V64.8344C56.3707 64.8636 56.3707 64.893 56.3677 64.9222L56.4083 65.01C56.4199 65.0412 56.4359 65.0708 56.4556 65.0977L56.5096 65.1787L56.5705 65.253L56.6448 65.3272L56.7191 65.388C56.7459 65.4098 56.7754 65.428 56.807 65.442C56.8256 65.4578 56.846 65.4714 56.8678 65.4825L58.3207 66.2048C58.5254 66.3017 58.7089 66.438 58.8608 66.6059C59.0127 66.7738 59.13 66.9699 59.2059 67.1831C59.2819 67.3962 59.315 67.6223 59.3034 67.8482C59.2918 68.0742 59.2358 68.2957 59.1384 68.5C59.0494 68.7218 58.9155 68.9228 58.7452 69.0905C58.5748 69.2582 58.3715 69.3889 58.1482 69.4744C57.9249 69.56 57.6863 69.5985 57.4473 69.5877C57.2084 69.5768 56.9743 69.5168 56.7597 69.4113L52.705 67.4874L53.8673 65.5163C54.4035 64.6053 54.5566 63.5193 54.2932 62.4958C54.0297 61.4723 53.3712 60.5948 52.4617 60.0551V60.0551C51.6491 59.572 50.6912 59.3926 49.7586 59.5488C49.8672 58.6398 49.7091 57.719 49.3036 56.8981C48.8981 56.0772 48.2627 55.3916 47.4745 54.9247V54.9247C46.7001 54.4703 45.8123 54.2456 44.9148 54.2766C44.0173 54.3077 43.1472 54.5934 42.4062 55.1002C42.1633 54.3735 41.7163 53.7318 41.1186 53.2517C40.5209 52.7715 39.7976 52.4731 39.035 52.392C38.2723 52.3109 37.5023 52.4505 36.8168 52.7943C36.1313 53.138 35.5592 53.6713 35.1686 54.3306L32.4655 58.9277L25.8159 54.2024L25.7415 54.1619L25.6672 54.1146L18.4566 50.5908C18.2147 50.4736 17.936 50.4571 17.6819 50.5451C17.4278 50.6331 17.2191 50.8183 17.1017 51.06C16.9843 51.3017 16.9678 51.5801 17.0559 51.8339C17.144 52.0877 17.3294 52.2962 17.5714 52.4135L24.6873 55.8698L31.5059 60.7436C31.3249 61.3389 31.2856 61.9682 31.3911 62.5814C31.4965 63.1946 31.7438 63.7747 32.1133 64.2755C32.4828 64.7764 32.9642 65.1842 33.5193 65.4664C34.0743 65.7486 34.6877 65.8974 35.3105 65.901C35.537 65.8985 35.763 65.8782 35.9863 65.8403C35.8847 66.7502 36.0466 67.6701 36.4526 68.4909C36.8587 69.3117 37.4919 69.999 38.2772 70.4711C38.9905 70.9045 39.8076 71.1377 40.6424 71.1462C41.0693 71.1466 41.4943 71.0898 41.9061 70.9774C42.4174 70.8323 42.9014 70.6043 43.3387 70.3024C43.5873 71.0249 44.0379 71.661 44.6372 72.1356C45.2366 72.6101 45.9595 72.9031 46.7204 72.9798C47.4814 73.0565 48.2483 72.9138 48.9305 72.5684C49.6127 72.2231 50.1815 71.6897 50.5696 71.0314L51.6508 69.202L55.8947 71.2272C56.3387 71.4404 56.8209 71.5627 57.313 71.5871C57.805 71.6114 58.297 71.5373 58.76 71.369C59.5488 71.0908 60.2217 70.5567 60.6712 69.852C61.1207 69.1472 61.321 68.3124 61.2401 67.4807L62.2875 67.9329C62.7523 68.1347 63.2539 68.2382 63.7607 68.2367C64.497 68.2372 65.2173 68.0229 65.8332 67.6199C66.4491 67.2169 66.9337 66.6429 67.2275 65.9685C67.286 65.844 67.3161 65.7079 67.3153 65.5703C67.3278 65.4919 67.3481 65.415 67.3761 65.3407C67.4852 65.025 67.5489 64.6955 67.5653 64.3619C68.187 64.2744 68.7768 64.0327 69.2809 63.6589C69.7849 63.2851 70.1872 62.7911 70.4509 62.222C70.9685 61.1111 71.034 59.8428 70.6334 58.6847C70.5028 58.33 70.3181 57.9976 70.086 57.6991L74.2015 55.9103L81.3917 52.4202C81.5167 52.3664 81.6295 52.2878 81.7232 52.1893C81.8169 52.0907 81.8897 51.9741 81.937 51.8467C81.9844 51.7192 82.0054 51.5835 81.9988 51.4477C81.9922 51.3119 81.9581 51.1789 81.8986 51.0566V51.0566ZM34.3374 63.5991C33.8913 63.3287 33.5701 62.8935 33.4436 62.3878C33.317 61.8822 33.3954 61.3471 33.6616 60.8989L36.9459 55.3567C37.1195 55.0618 37.3675 54.8174 37.6651 54.6481C37.9627 54.4787 38.2996 54.3902 38.6421 54.3914C38.9968 54.3896 39.3451 54.4854 39.649 54.6682C40.0964 54.9373 40.4188 55.3726 40.5455 55.8788C40.6722 56.3849 40.5928 56.9206 40.3248 57.3684L37.0473 62.9106C36.9156 63.1346 36.7408 63.3303 36.5329 63.4863C36.325 63.6424 36.0882 63.7557 35.8362 63.8198C35.5842 63.8838 35.3219 63.8973 35.0647 63.8594C34.8074 63.8215 34.5602 63.7331 34.3374 63.5991V63.5991ZM41.379 68.9995C41.0344 69.0972 40.6735 69.1243 40.3181 69.079C39.9627 69.0338 39.6202 68.9172 39.3111 68.7363C38.6798 68.3482 38.2284 67.7258 38.0561 67.0057C37.8838 66.2855 38.0046 65.5265 38.3921 64.8952L42.6359 57.7261C42.8841 57.2968 43.2405 56.94 43.6697 56.6913C44.099 56.4426 44.586 56.3106 45.0822 56.3085C45.5576 56.3114 46.0238 56.4395 46.4338 56.6798C47.0594 57.0698 47.5051 57.6912 47.6735 58.4084C47.8419 59.1256 47.7194 59.8802 47.3326 60.5074L43.0955 67.6629C42.7232 68.3097 42.1117 68.7848 41.3925 68.986L41.379 68.9995ZM48.8125 70.0121C48.5193 70.4055 48.0901 70.6761 47.6084 70.7712C47.1267 70.8663 46.6268 70.7793 46.2057 70.5269C45.7846 70.2745 45.4724 69.8749 45.3298 69.4055C45.1871 68.9361 45.2241 68.4306 45.4337 67.9869L48.7112 62.438C48.8882 62.1452 49.1381 61.903 49.4365 61.7351C49.7349 61.5671 50.0716 61.479 50.4141 61.4794C50.761 61.4798 51.1016 61.5715 51.4017 61.7453C51.7018 61.919 51.9508 62.1688 52.1235 62.4693C52.2961 62.7698 52.3865 63.1105 52.3854 63.457C52.3842 63.8034 52.2917 64.1435 52.1171 64.4429L50.7655 66.7786C50.6196 66.8123 50.4831 66.8784 50.3661 66.9718C50.2492 67.0653 50.1547 67.1838 50.0898 67.3186C49.9968 67.5313 49.9778 67.769 50.0357 67.9937L48.8125 70.0121Z" fill="#231F20"/> </svg>