<?xml version="1.0" encoding="UTF-8"?>
<svg xmlns="http://www.w3.org/2000/svg" width="100" height="100" viewBox="0 0 100 100" fill="none"><title> - static.tildacdn.com/ </title> <path opacity="0.7" d="M89.95 28.7969C88.4066 27.4621 83.7568 22.2414 82.2083 20.8984C74.8981 14.5587 73.727 9.16867 65.357 4.11753C56.4571 -1.2544 44.9182 -1.36858 35.8048 3.76683C25.6677 9.47587 21.236 16.9542 13.0281 25.0257C0.31105 37.5312 -3.06908 56.5972 2.76985 68.8798C7.00372 77.7886 17.1411 84.2529 25.3979 87.6186C35.6559 91.8025 38.9911 98.8875 50.1005 99.9016C59.5791 100.763 77.1172 95.9324 81.5748 86.7436C84.1033 81.5239 88.7127 78.1474 92.5248 74.1022C102.556 63.4535 102.219 43.1701 93.1447 32.0048C92.1729 30.8364 91.1037 29.7628 89.95 28.7969Z" fill="#FFE7C4"/> <path d="M28.0606 63.8048C28.0592 65.0296 28.4212 66.2273 29.1006 67.2463C29.7801 68.2653 30.7466 69.0599 31.8777 69.5295C33.0089 69.9991 34.2539 70.1227 35.4553 69.8846C36.6567 69.6465 37.7605 69.0574 38.627 68.1918C39.4936 67.3262 40.0839 66.2231 40.3233 65.0219C40.5627 63.8208 40.4405 62.5756 39.9721 61.4439C39.5038 60.3123 38.7102 59.3449 37.692 58.6644C36.6737 57.9838 35.4764 57.6205 34.2517 57.6205C32.6114 57.6223 31.0387 58.2742 29.8783 59.4334C28.7178 60.5926 28.0641 62.1646 28.0606 63.8048V63.8048ZM38.4017 63.8048C38.403 64.6275 38.1602 65.4321 37.704 66.1168C37.2477 66.8014 36.5986 67.3352 35.8388 67.6507C35.0789 67.9661 34.2426 68.049 33.4356 67.8889C32.6286 67.7287 31.8873 67.3326 31.3056 66.7509C30.7238 66.1692 30.3278 65.4279 30.1676 64.6209C30.0075 63.8139 30.0904 62.9776 30.4058 62.2177C30.7213 61.4579 31.2551 60.8088 31.9397 60.3525C32.6243 59.8963 33.429 59.6535 34.2517 59.6548C35.3518 59.6566 36.4063 60.0944 37.1842 60.8723C37.9621 61.6502 38.3999 62.7047 38.4017 63.8048Z" fill="#13181A"/> <path d="M76.8851 40.695C76.7854 40.6058 76.6691 40.5372 76.5429 40.493C76.4167 40.4488 76.283 40.43 76.1494 40.4375C76.0159 40.4451 75.8852 40.4789 75.7647 40.537C75.6443 40.5952 75.5365 40.6765 75.4475 40.7764L60.6716 57.3221L53.07 49.7138C52.8743 49.5484 52.6233 49.4631 52.3673 49.4747C52.1114 49.4864 51.8692 49.5942 51.6893 49.7767C51.5094 49.9592 51.405 50.2028 51.397 50.4589C51.389 50.7151 51.4779 50.9648 51.646 51.1582L60.0003 59.5192C60.0937 59.6149 60.2056 59.6907 60.3291 59.742C60.4527 59.7933 60.5853 59.819 60.7191 59.8176C60.8577 59.8136 60.9942 59.7815 61.12 59.7232C61.2459 59.665 61.3587 59.5817 61.4514 59.4785L76.9665 42.1326C77.0557 42.0329 77.1243 41.9166 77.1685 41.7904C77.2126 41.6641 77.2315 41.5304 77.2239 41.3969C77.2164 41.2634 77.1826 41.1326 77.1244 41.0122C77.0663 40.8918 76.985 40.784 76.8851 40.695V40.695Z" fill="#13181A"/> <path d="M61.0657 62.3605C60.7959 62.3605 60.5372 62.4676 60.3465 62.6584C60.1557 62.8491 60.0485 63.1079 60.0485 63.3776V73.5018H24.0343V26.0343H60.0485V47.3472C60.0485 47.617 60.1557 47.8757 60.3465 48.0664C60.5372 48.2572 60.7959 48.3644 61.0657 48.3644C61.3355 48.3644 61.5942 48.2572 61.7849 48.0664C61.9757 47.8757 62.0829 47.617 62.0829 47.3472V25.0172C62.0829 24.7474 61.9757 24.4887 61.7849 24.2979C61.5942 24.1072 61.3355 24 61.0657 24H23.0172C22.7474 24 22.4887 24.1072 22.2979 24.2979C22.1072 24.4887 22 24.7474 22 25.0172V74.5189C22 74.7887 22.1072 75.0474 22.2979 75.2382C22.4887 75.4289 22.7474 75.5361 23.0172 75.5361H61.0657C61.3355 75.5361 61.5942 75.4289 61.7849 75.2382C61.9757 75.0474 62.0829 74.7887 62.0829 74.5189V63.3776C62.0829 63.1079 61.9757 62.8491 61.7849 62.6584C61.5942 62.4676 61.3355 62.3605 61.0657 62.3605Z" fill="#13181A"/> <path d="M49.1779 37.7181C49.4477 37.7181 49.7064 37.6109 49.8972 37.4202C50.0879 37.2294 50.1951 36.9707 50.1951 36.7009C50.1951 36.4312 50.0879 36.1725 49.8972 35.9817C49.7064 35.7909 49.4477 35.6838 49.1779 35.6838H28.7398C28.47 35.6838 28.2113 35.7909 28.0206 35.9817C27.8298 36.1725 27.7227 36.4312 27.7227 36.7009C27.7227 36.9707 27.8298 37.2294 28.0206 37.4202C28.2113 37.6109 28.47 37.7181 28.7398 37.7181H49.1779Z" fill="#13181A"/> <path d="M50.4481 45.7469C50.4481 45.4771 50.3409 45.2184 50.1502 45.0276C49.9594 44.8369 49.7007 44.7297 49.4309 44.7297H28.9996C28.7298 44.7297 28.4711 44.8369 28.2803 45.0276C28.0896 45.2184 27.9824 45.4771 27.9824 45.7469C27.9824 46.0166 28.0896 46.2754 28.2803 46.4661C28.4711 46.6569 28.7298 46.764 28.9996 46.764H49.4309C49.7007 46.764 49.9594 46.6569 50.1502 46.4661C50.3409 46.2754 50.4481 46.0166 50.4481 45.7469V45.7469Z" fill="#13181A"/> </svg>