<svg xmlns="http://www.w3.org/2000/svg" viewBox="0 0 67 75">
  <path fill="#568f69" fill-rule="evenodd" d="m26 5-3-5H11L8 5h6l3 6-3 5H8l3 5h12l5-8 6-1c19 0 31 22 21 39 3 0 3 0 5 3l1 2A33 33 0 0 0 26 5zm15 65 3 5h12l3-5h-6l-4-6 4-6h6l-3-5H44l-5 9h-6C14 62 2 40 12 24c-3 0-3 0-5-3l-1-3a33 33 0 0 0 35 52z" clip-rule="evenodd"/>
  <path fill="#ffc44c" fill-rule="evenodd" d="m48 35 1 3H24v-5h1l8-10c0-1-1-5 2-5 6 0 5 7 4 11h7c3 0 5 4 2 6z" clip-rule="evenodd"/>
  <path fill="#fea900" fill-rule="evenodd" d="M48 46c0 1-2 3-4 3H34l-5-1-5-2v-8h25l-1 1c1 2 0 4-1 5l1 2z" clip-rule="evenodd"/>
  <path fill="#48a868" fill-rule="evenodd" d="M17 28h9v10h-9V28z" clip-rule="evenodd"/>
  <path fill="#019934" fill-rule="evenodd" d="M17 38h9v10h-9V38z" clip-rule="evenodd"/>
</svg>
